<svg width="24" height="24" viewBox="0 0 24 24" fill="none" xmlns="http://www.w3.org/2000/svg">
<g clip-path="url(#clip0_2079_1505)">
<path d="M18.2496 1.7523C12.5989 -1.69343 5.19846 0.100476 1.75277 5.75112C-1.69292 11.4018 0.100943 18.8022 5.75158 22.2479C6.0664 22.4399 6.38679 22.6153 6.71149 22.7751C6.71674 22.7776 6.72204 22.7803 6.72738 22.7828C8.40565 23.6052 10.2021 24.0001 11.9808 24.0001C16.0314 24.0001 19.9897 21.9532 22.2484 18.2491C25.6941 12.5984 23.9002 5.19804 18.2496 1.7523ZM9.08852 2.19743L8.94204 2.77948L5.81238 4.54085L5.17418 4.38026C6.29032 3.37765 7.61983 2.63182 9.08852 2.19743ZM6.20477 15.1204L6.0364 15.3068C5.51266 15.8863 5.2879 16.6604 5.41962 17.4303L5.89404 20.2029C3.9783 18.7819 2.6313 16.7557 2.06247 14.4091C1.63291 12.637 1.6819 10.8242 2.18454 9.12082L5.13091 10.807C5.42304 10.9742 5.56971 11.3189 5.48754 11.6453C5.27524 12.4889 5.50535 13.3699 6.10305 14.0018L6.1931 14.097C6.46165 14.3809 6.46671 14.8305 6.20477 15.1204ZM12.4399 22.2193L12.2563 21.0988L12.4042 21.0333C12.938 20.7967 13.5615 20.9767 13.8869 21.4615L14.2339 21.9785C13.6381 22.1122 13.0382 22.1924 12.4399 22.2193ZM20.7313 17.324C19.6015 19.1768 17.9518 20.5912 15.9903 21.4174C15.9752 21.3882 15.9586 21.3595 15.9398 21.3315L15.3623 20.4711C14.5552 19.2686 13.0083 18.8218 11.6841 19.4088L10.9084 19.7526C10.5387 19.9166 10.3263 20.3095 10.3917 20.7086L10.6261 22.1383C9.68955 22.0116 8.77207 21.7532 7.89602 21.3671L7.1711 17.1305C7.13182 16.9012 7.1988 16.6706 7.35485 16.498L7.52322 16.3117C8.40274 15.3383 8.38558 13.8291 7.48418 12.876L7.39413 12.7808C7.2161 12.5926 7.14757 12.3302 7.21076 12.0789C7.48647 10.9832 6.99415 9.82596 6.01357 9.26473L2.84262 7.45005C2.97344 7.18774 3.11543 6.92941 3.26983 6.6762C3.43985 6.39748 3.62191 6.12888 3.81471 5.87041L5.72243 6.35046C5.79391 6.36846 5.86671 6.37737 5.93922 6.37737C6.09068 6.37737 6.24096 6.33865 6.37497 6.26318L10.1462 4.14077C10.3586 4.02124 10.5126 3.81973 10.572 3.58334L10.987 1.93404C10.9964 1.89654 11.0025 1.85904 11.0069 1.82163C11.3447 1.78798 11.6824 1.77021 12.0192 1.77021C13.8745 1.77021 15.7 2.27885 17.3243 3.26937C17.5134 3.38468 17.6975 3.50599 17.8773 3.63199C17.8762 3.63326 17.875 3.63424 17.8738 3.63541L16.4266 5.2173L12.6124 5.36538C12.3173 5.37682 12.0472 5.53418 11.8917 5.78515L10.2302 8.46635C10.0372 8.77774 10.0551 9.17557 10.2753 9.46835L11.3269 10.867C11.5447 11.1566 11.6636 11.5155 11.6617 11.8778L11.6523 13.7013C11.6485 14.4225 11.9621 15.1035 12.5124 15.5696C12.9557 15.9453 13.5113 16.1462 14.0822 16.1462C14.2199 16.1462 14.3586 16.1345 14.4967 16.1107L16.5222 15.7622C17.2684 15.6339 17.9614 15.2562 18.4738 14.6989C18.7796 14.3663 19.1966 14.1751 19.6481 14.1607C20.0992 14.1456 20.5281 14.3104 20.8545 14.6227L21.4242 15.1679C21.4985 15.2391 21.5823 15.2938 21.6709 15.3341C21.4324 16.0213 21.1191 16.6881 20.7313 17.324ZM22.1366 13.3901L22.0832 13.339C21.4091 12.6938 20.5243 12.3548 19.5914 12.3846C18.6587 12.4144 17.7972 12.8091 17.1657 13.4962C16.9176 13.766 16.5821 13.9488 16.2209 14.011L14.1954 14.3595C13.9331 14.4046 13.748 14.2875 13.6609 14.2138C13.5737 14.14 13.4278 13.9765 13.4291 13.7105L13.4386 11.8871C13.4424 11.1387 13.1968 10.3972 12.7472 9.7991L12.0606 8.88607L13.1534 7.12268L16.8662 6.97859C17.1033 6.9694 17.327 6.86571 17.4873 6.69054L19.1851 4.83499C19.204 4.81437 19.2213 4.79294 19.2379 4.7711C20.5546 6.08454 21.4894 7.73782 21.9387 9.59116C22.245 10.855 22.3078 12.1394 22.1366 13.3901Z" fill="white"/>
</g>
<defs>
<clipPath id="clip0_2079_1505">
<rect width="24" height="24" fill="white"/>
</clipPath>
</defs>
</svg>
