<svg width="197" height="103" viewBox="0 0 197 103" fill="none" xmlns="http://www.w3.org/2000/svg">
<path d="M90.4921 102.185C90.3444 102.037 71.7537 101.691 49.1796 101.416C26.6054 101.141 7.31809 100.748 6.31888 100.541C5.31968 100.335 6.35132 100.519 5.03438 100.32C4.91704 100.303 5.2447 100.356 4.38156 100.308C3.65663 100.267 2.59825 99.1121 1.46543 98.5059C-1.07433 97.1466 -0.848965 96.652 6.48104 87.4987C9.42329 83.8246 12.393 80.6801 12.765 80.1207C14.18 77.9934 12.0747 80.7968 17.8645 73.5479C20.6906 69.9747 23.7213 66.3686 24.5993 65.5343C25.4774 64.7 26.0348 63.7569 25.8381 63.4386C25.6414 63.1203 28.7451 62.7456 32.7353 62.606C36.7254 62.4663 44.9917 62.0079 51.1048 61.5873C57.2179 61.1667 62.7819 61.0384 63.4694 61.3022C64.1568 61.566 63.4356 61.7626 63.4356 61.2523C63.4356 60.7419 63.6979 61.9863 63.6714 59.9131C63.6623 59.1978 62.9072 59.711 63.5468 59.2844C64.0622 58.9405 64.719 54.596 65.0337 49.4475C65.3438 44.3759 66.1717 35.7565 66.8735 30.2933C67.5753 24.83 68.0887 19.7375 68.0144 18.9766C67.9401 18.2156 67.9699 17.3101 68.0806 16.9643C68.1913 16.6185 68.3291 15.8686 68.3867 15.2978C68.4443 14.727 70.5662 13.5496 73.102 12.6814C83.5085 9.11826 92.1096 6.01697 94.478 4.97383C95.8612 4.36464 98.5018 3.2024 100.346 2.39106C102.19 1.57973 103.93 0.787488 104.213 0.630537C104.496 0.473587 105.166 1.40505 105.702 2.70045C106.412 4.41292 106.615 16.7784 106.446 48.0085C106.254 83.5043 106.408 90.8868 107.33 90.5326C107.944 90.2968 108.604 90.1038 108.797 90.1038C108.99 90.1038 109.148 89.3717 109.148 88.4768C109.148 87.5819 109.513 86.6241 109.959 86.3484C111.399 85.4581 119.287 67.5199 120.471 62.4408C121.654 57.3628 125.237 44.3958 125.54 44.093C127.086 42.5469 126.134 47.5126 122.425 60.3451C118.207 74.9379 112.869 86.3095 107.979 91.1212C106.184 92.8879 104.958 94.5762 105.255 94.8731C105.552 95.17 105.795 94.9983 105.795 94.4914C105.795 93.9846 106.587 93.3183 107.556 93.0108C109.94 92.2542 114.777 87.3929 119.205 81.302C121.217 78.5357 123.077 76.0837 123.34 75.8532C123.603 75.6226 124.722 73.7365 125.828 71.6618C126.934 69.5871 128.302 67.3237 128.868 66.6321C129.435 65.9406 130.816 63.4886 131.938 61.1834C133.06 58.8781 135.217 54.54 136.73 51.5432C138.244 48.5463 140.296 44.4066 141.29 42.3437C142.284 40.2808 143.57 38.0848 144.146 37.4637C144.722 36.8426 145.194 35.7834 145.194 35.11C145.194 34.4365 145.815 32.4831 146.574 30.7689C147.333 29.0548 148.051 27.2751 148.17 26.8141C148.288 26.353 148.629 25.3705 148.928 24.6306C149.372 23.5303 148.662 23.1884 145.027 22.7518C142.583 22.4583 139.294 22.2148 137.719 22.2108C136.144 22.2066 135.085 21.9732 135.367 21.6917C135.648 21.4102 139.325 21.4526 143.537 21.786C152.402 22.4876 152.21 22.0146 147.663 31.9438C144.007 39.9246 144.055 40.9021 148.128 41.5874C157.166 43.1079 168.665 46.066 168.659 46.869C168.654 47.3651 166.974 49.4684 164.924 51.5432C162.874 53.6179 161.18 55.787 161.159 56.3633C161.138 56.9396 160.773 57.4111 160.347 57.4111C159.543 57.4111 158.688 58.1695 146.87 69.3585C138.357 77.4185 137.905 77.8066 130.943 83.0151C127.946 85.2572 125.306 87.3396 125.075 87.6425C124.845 87.9455 123.336 88.8645 121.722 89.6847C120.108 90.5049 118.599 91.4278 118.369 91.7354C118.009 92.2151 112.891 94.5364 111.663 94.7771C111.432 94.8222 110.567 95.1561 109.74 95.519C108.914 95.882 108.079 96.0209 107.886 95.8279C107.693 95.6348 110.798 93.7964 114.786 91.7425C122.984 87.5206 135.861 77.9571 145.194 69.1601C156.254 58.7342 166.148 48.6348 166.148 47.7709C166.147 47.0866 154.449 43.7632 152.135 43.7902C151.775 43.7944 150.726 43.521 149.804 43.1827C144.15 41.1085 143.641 41.2389 141.759 45.2428C140.78 47.3248 139.644 49.0283 139.233 49.0283C138.823 49.0283 138.488 49.6049 138.488 50.3096C138.488 51.5892 133.706 61.6473 132.721 62.4407C132.435 62.6712 131.459 64.3687 130.553 66.2129C124.51 78.5117 111.914 93.2998 104.956 96.2638C104.265 96.5584 107.094 96.6384 111.244 96.4416C118.149 96.1141 118.369 96.1488 113.843 96.8515C111.123 97.2738 108.748 97.7689 108.565 97.9519C108.382 98.1348 109.927 98.5387 111.998 98.8493C114.577 99.236 116.506 99.039 118.115 98.2245C119.407 97.5703 122.539 96.5488 125.075 95.9547C127.611 95.3605 130.251 94.5687 130.943 94.1951C135.126 91.9354 148.932 85.9124 149.929 85.9124C150.584 85.9124 151.956 85.3717 152.977 84.7109C154.755 83.5601 163.855 81.1289 169.033 80.4209C171.308 80.1099 171.372 80.1699 169.872 81.2019C168.978 81.8167 167.022 82.3484 165.526 82.3834C161.71 82.4725 141.482 90.1508 134.098 94.313C133.297 94.7642 132.223 95.1334 131.71 95.1334C131.197 95.1334 129.589 95.6774 128.136 96.3422C126.683 97.007 124.551 97.7413 123.399 97.9739C122.246 98.2066 123.4 98.2336 125.964 98.034C130.45 97.6847 142.173 95.1996 153.569 92.1823C157.54 91.1307 162.407 90.7375 171.592 90.7263C183.516 90.7117 184.499 90.8382 190.396 93.1487C193.819 94.4895 196.766 96.0264 196.945 96.564C197.124 97.1016 196.231 98.223 194.959 99.0561C192.854 100.436 189.278 100.625 154.879 101.175C134.107 101.507 111.183 101.931 103.936 102.116C96.6897 102.302 90.6399 102.333 90.4921 102.185ZM78.3572 99.6132C77.7896 99.3836 76.658 99.3696 75.8424 99.5821C75.0267 99.7946 75.4911 99.9825 76.8742 99.9996C78.2574 100.017 78.9247 99.8428 78.3572 99.6132ZM86.724 99.6082C86.1477 99.3757 85.2046 99.3757 84.6283 99.6082C84.052 99.8407 84.5235 100.031 85.6761 100.031C86.8288 100.031 87.3003 99.8407 86.724 99.6082ZM99.5656 99.2314C100.288 98.0622 98.1062 96.619 97.1148 97.6104C96.3085 98.4165 97.0853 100.163 98.2503 100.163C98.6569 100.163 99.2488 99.744 99.5656 99.2314ZM106.633 98.1651C106.633 97.9883 105.69 97.6634 104.537 97.4431C103.385 97.2227 102.442 97.3674 102.442 97.7645C102.442 98.1616 103.385 98.4865 104.537 98.4865C105.69 98.4865 106.633 98.3419 106.633 98.1651ZM20.2907 94.9239C20.2907 94.5781 18.2382 94.2951 15.7296 94.2951C13.221 94.2951 10.994 94.5781 10.7807 94.9239C10.5673 95.2696 12.6199 95.5526 15.3418 95.5526C18.0638 95.5526 20.2908 95.2696 20.2907 94.9239ZM33.8518 94.0831C35.4516 91.5637 34.5755 90.9304 29.7893 91.1466C26.8963 91.2772 24.9012 91.7713 24.6896 92.4096C24.4626 93.094 24.8756 93.2922 25.8789 92.9804C26.7243 92.7177 26.4786 93.061 25.3329 93.7434L23.2499 94.984L25.7521 95.2844C29.6336 95.7503 33.1217 95.233 33.8518 94.0831ZM59.9801 94.9239C59.7659 94.5781 56.9475 94.2951 53.7171 94.2951C50.4866 94.2951 47.0995 93.897 46.1901 93.4103C44.3767 92.4398 37.0561 93.1945 37.0561 94.352C37.0561 95.079 43.8857 95.5526 54.3712 95.5526C57.6702 95.5526 60.1942 95.2696 59.9801 94.9239ZM70.2328 95.148C73.4888 95.8824 73.9149 94.9905 71.7706 91.929C70.6433 90.3196 69.8079 90.0661 66.3219 90.2755C64.0575 90.4116 62.2047 90.8103 62.2046 91.1615C62.2045 91.5127 63.6724 91.5654 65.4665 91.2785C67.297 90.9858 69.4124 91.1542 70.2866 91.6622C71.6633 92.4622 71.5519 92.5814 69.3298 92.6859C67.9466 92.751 65.9662 92.7354 64.9288 92.6514C63.7441 92.5554 63.0427 92.9656 63.0427 93.7545C63.0427 95.1205 65.5507 96.0449 66.6701 95.0915C67.0515 94.7667 68.6547 94.7921 70.2328 95.148ZM82.5516 93.0762C81.0303 91.2674 79.6192 90.4977 77.7117 90.4364L75.0192 90.35L76.7499 92.9513C78.1557 95.0641 79.0645 95.5598 81.5898 95.591L84.6989 95.6294L82.5516 93.0762ZM78.6064 92.658C77.7149 92.3343 77.3557 91.8407 77.8082 91.5611C78.6729 91.0267 81.304 92.2663 80.6222 92.8869C80.405 93.0847 79.4979 92.9816 78.6064 92.658ZM88.8336 92.8701C87.1278 91.1642 85.5486 89.9519 85.3245 90.176C84.7304 90.7701 89.7739 95.9717 90.9439 95.9717C91.4892 95.9717 90.5395 94.576 88.8336 92.8701ZM19.4523 92.5296C19.4523 91.5882 12.9973 91.5341 12.4184 92.4707C12.1838 92.8503 13.6704 93.1875 15.7221 93.22C17.7737 93.2524 19.4523 92.9417 19.4523 92.5296ZM21.548 92.6186C21.833 92.1575 21.6666 91.7803 21.1784 91.7803C20.6901 91.7803 20.2906 92.1575 20.2906 92.6186C20.2906 93.0796 20.457 93.4569 20.6603 93.4569C20.8636 93.4569 21.2631 93.0796 21.548 92.6186ZM46.4439 90.8114C46.1217 90.509 44.3491 90.5707 42.5049 90.9484L39.1518 91.6352L43.0908 91.4982C45.2572 91.4229 46.7661 91.1138 46.4439 90.8114ZM58.8513 90.9813C58.8513 90.4765 56.8932 90.1038 54.2408 90.1038C48.2538 90.1038 48.2561 91.2867 54.2442 91.61C57.0529 91.7617 58.8513 91.5163 58.8513 90.9813ZM99.9858 89.4751C100.076 88.6682 100.307 71.4102 100.5 51.124C100.919 7.06975 100.767 5.99473 94.5918 9.21534C93.2712 9.90408 91.5737 10.4925 90.8195 10.523C90.0654 10.5535 87.3737 11.259 84.8379 12.0907C81.3275 13.2421 78.9897 13.614 81.2842 12.95C82.2082 12.6827 82.493 12.7239 80.446 13.2946C79.1022 13.6693 76.9634 14.3297 75.0232 14.8083C72.115 15.5258 71.3557 16.141 70.6986 18.3123C69.3461 22.7816 69.4811 29.708 69.7099 28.5211C69.8204 27.9475 69.5956 29.8659 69.6075 29.3044C69.6565 26.9975 68.441 35.3665 67.7056 43.5795C67.5404 45.4237 67.1238 49.7245 66.7797 53.1369L66.1542 59.3413L78.1227 70.9306C84.7831 77.3799 90.5064 82.2831 91.0273 81.9861C91.542 81.6925 91.6711 81.7733 91.3141 82.1658C90.6894 82.8526 97.9716 90.942 99.2145 90.942C99.549 90.942 99.8961 90.2819 99.9858 89.4751ZM88.9223 79.4158C87.8796 78.0862 87.9093 78.0565 89.2388 79.0993C90.0457 79.732 90.7058 80.3922 90.7058 80.5662C90.7058 81.2562 90.0174 80.8121 88.9223 79.4158ZM22.8055 88.9162C22.8055 88.2631 23.277 87.5384 23.8533 87.3058C24.4793 87.0532 24.3105 86.8564 23.4342 86.8168C22.6273 86.7805 21.9614 87.2222 21.9543 87.7985C21.946 88.4731 21.7221 88.5377 21.3256 87.9797C20.2372 86.4481 15.6186 86.8238 14.5526 88.5307C13.6364 89.9978 13.8813 90.1038 18.1878 90.1038C21.6128 90.1038 22.8055 89.797 22.8055 88.9162ZM35.0452 87.1308C35.3398 85.9567 35.347 84.7621 35.0612 84.4762C34.7753 84.1903 34.5414 84.5851 34.5414 85.3535C34.5414 86.4455 33.737 86.7507 30.8588 86.7507C28.3587 86.7507 27.0213 87.1544 26.6937 88.0081C26.3049 89.0214 27.0166 89.2655 30.3603 89.2655C34.1071 89.2655 34.5613 89.0585 35.0452 87.1308ZM45.858 88.4272C44.9359 88.031 44.653 87.6803 45.2293 87.6479C45.8056 87.6154 46.2772 86.9261 46.2772 86.1159C46.2772 84.8624 45.6838 84.7014 42.2954 85.0354L38.3136 85.4279L42.0858 85.9634L45.858 86.4989L41.8762 86.6248C38.9517 86.7172 37.8944 87.0845 37.8944 88.0081C37.8944 88.9868 38.9626 89.2524 42.7145 89.2066C46.1824 89.1641 47.0643 88.9456 45.858 88.4272ZM56.1269 88.6651C54.859 88.473 52.7843 88.473 51.5164 88.6651C50.2485 88.8571 51.2859 89.0143 53.8217 89.0143C56.3574 89.0143 57.3948 88.8571 56.1269 88.6651ZM67.8778 88.6668C66.6182 88.4755 64.3548 88.4716 62.8481 88.6582C61.3415 88.8448 62.3721 89.0013 65.1384 89.006C67.9047 89.011 69.1374 88.858 67.8778 88.6668ZM78.7701 88.6897C77.9687 88.4799 76.4598 88.4723 75.417 88.6728C74.3743 88.8733 75.03 89.045 76.8742 89.0543C78.7185 89.0636 79.5716 88.8995 78.7701 88.6897ZM57.6197 86.4074C57.3756 85.9047 56.943 84.8333 56.6584 84.0265C56.2551 82.883 55.2844 82.5918 52.2569 82.7059L48.3729 82.8524L51.9355 83.1733C53.895 83.3498 55.4982 83.7971 55.4982 84.1675C55.4982 84.5378 54.1779 84.736 52.5642 84.608C50.1416 84.4158 49.6303 84.658 49.6303 85.9976C49.6303 87.4066 50.1847 87.6003 53.8469 87.4707C56.5621 87.3746 57.9055 86.996 57.6197 86.4074ZM61.9013 86.3317C61.5731 85.4765 61.9465 85.0743 63.069 85.0743C63.9766 85.0743 64.7192 84.6702 64.7192 84.1762C64.7192 83.6822 65.2851 83.8439 65.9767 84.5354C66.6682 85.227 67.2341 86.197 67.2341 86.691C67.2341 87.185 67.6064 87.5892 68.0615 87.5892C68.5165 87.5892 68.064 85.8916 67.0561 83.8169C65.3005 80.2032 65.0699 80.0447 61.5688 80.0447C59.1903 80.0447 58.1073 80.3574 58.4675 80.9401C58.7719 81.4326 59.5365 81.6377 60.1667 81.3958C60.7969 81.154 61.5354 81.3169 61.8079 81.7578C62.0804 82.1988 61.5594 82.5595 60.6502 82.5595C59.1612 82.5595 59.0912 82.8093 59.9462 85.0743C60.4683 86.4575 61.2303 87.5892 61.6396 87.5892C62.0489 87.5892 62.1667 87.0233 61.9013 86.3317ZM65.5575 86.2418C65.5575 86.0606 64.9917 85.9124 64.3001 85.9124C63.6085 85.9124 63.0427 86.2778 63.0427 86.7244C63.0427 87.1709 63.6085 87.3192 64.3001 87.0538C64.9917 86.7884 65.5575 86.423 65.5575 86.2418ZM73.9403 86.7507C73.9403 86.2896 73.5408 85.9124 73.0525 85.9124C72.5643 85.9124 72.3979 86.2896 72.6829 86.7507C72.9678 87.2117 73.3673 87.5889 73.5706 87.5889C73.7739 87.5889 73.9403 87.2117 73.9403 86.7507ZM76.4551 86.7507C76.4551 86.2896 76.0779 85.9124 75.6168 85.9124C75.1558 85.9124 74.7786 86.2896 74.7786 86.7507C74.7786 87.2117 75.1558 87.5889 75.6168 87.5889C76.0779 87.5889 76.4551 87.2117 76.4551 86.7507ZM83.0544 86.1646C82.4216 85.3812 80.3071 83.0235 78.3554 80.9253C76.4038 78.8272 74.8006 76.8276 74.7928 76.4818C74.7852 76.136 74.3739 75.8531 73.8794 75.8531C72.9326 75.8531 73.9125 77.2415 79.3891 83.6595C81.2333 85.8207 83.0713 87.5889 83.4735 87.5889C83.8758 87.5889 83.6872 86.948 83.0544 86.1646ZM25.0546 83.3104C24.8257 82.435 24.9241 81.8953 25.2732 82.1111C25.6224 82.3269 26.8738 80.2654 28.0541 77.5301L30.2 72.5567L27.5204 72.6574C25.2437 72.743 24.4673 73.3829 22.3562 76.9135C20.9896 79.1989 19.2113 81.8391 18.4045 82.7806C16.2485 85.2964 16.5106 85.5227 21.2037 85.1977C24.9144 84.9407 25.4166 84.6946 25.0546 83.3104ZM26.6154 76.4818C26.9288 75.4444 27.5303 74.2271 27.9521 73.7765C28.3739 73.326 28.2946 74.1748 27.7759 75.6627C26.7143 78.7078 25.7338 79.4 26.6154 76.4818ZM75.5839 83.777C74.9918 83.0636 74.2855 82.8184 74.0143 83.2322C73.7431 83.6459 72.9553 84.1998 72.2637 84.4631C71.5722 84.7264 72.2785 84.9715 73.8334 85.0079C76.2927 85.0655 76.5204 84.9054 75.5839 83.777ZM34.1222 82.4913C32.739 82.0721 31.1785 81.8876 30.6544 82.0815C30.0695 82.2977 29.8333 81.7295 30.0429 80.6104C30.3676 78.8763 30.3454 78.8691 29.5878 80.4636C28.2855 83.2046 28.4957 83.4008 32.6552 83.3255C36.372 83.2583 36.4697 83.2027 34.1222 82.4913ZM44.8217 82.8075C43.7907 82.6085 41.9046 82.6033 40.6303 82.7961C39.3561 82.9887 40.1997 83.1515 42.5049 83.1578C44.8102 83.1637 45.8527 83.0064 44.8217 82.8075ZM73.6668 82.1235C74.1098 80.7927 69.1849 75.8452 67.4909 75.9193C66.3173 75.9706 66.2595 76.0907 67.2341 76.4533C67.9257 76.7106 69.1663 77.6239 69.9911 78.4828C71.1587 79.6987 71.2249 80.0445 70.2904 80.0445C69.6302 80.0445 68.8522 79.4246 68.5614 78.6671C68.2707 77.9095 67.8199 77.5026 67.5597 77.7629C67.2994 78.0232 67.9541 79.4097 69.0146 80.8441C70.858 83.3374 73.0611 83.9432 73.6668 82.1235ZM36.2179 79.7705C36.2179 79.0115 35.4191 78.7755 33.703 79.0274C32.3199 79.2304 31.1882 79.7309 31.1882 80.1396C31.1882 80.5483 32.3199 80.8827 33.703 80.8827C35.2337 80.8827 36.2179 80.4475 36.2179 79.7705ZM44.8217 80.2926C43.7907 80.0937 41.9046 80.0885 40.6303 80.2812C39.3561 80.4739 40.1997 80.6367 42.5049 80.643C44.8102 80.6489 45.8527 80.4916 44.8217 80.2926ZM52.7738 80.3049C51.967 80.094 50.6467 80.094 49.8398 80.3049C49.033 80.5157 49.6932 80.6883 51.3068 80.6883C52.9205 80.6883 53.5807 80.5157 52.7738 80.3049ZM45.7421 77.9488C45.4096 77.0825 44.1793 76.7269 41.7865 76.8055C39.2989 76.8873 38.9082 77.0425 40.4092 77.3526L42.5049 77.7856L40.4092 78.4123C38.7491 78.9088 39.1355 79.0564 42.2691 79.1226C45.4609 79.19 46.1314 78.9634 45.7421 77.9488ZM52.9834 78.1787C52.9834 77.7673 52.7005 77.5944 52.3547 77.7944C52.0089 77.9945 50.9715 77.8546 50.0494 77.4837C48.6759 76.9311 48.8653 76.7986 51.0973 76.7503C52.9339 76.7106 53.8217 76.2816 53.8217 75.4339C53.8217 74.7424 53.4563 74.1765 53.0097 74.1765C52.5631 74.1765 52.3848 73.689 52.6135 73.0931C52.8984 72.3506 52.2307 72.0203 50.4915 72.0434C47.5673 72.0823 47.0128 73.2813 49.8398 73.4524C51.6541 73.5622 51.6489 73.5811 49.704 73.9477C48.1393 74.2425 47.9497 74.4983 48.8657 75.0781C49.7017 75.6073 49.7416 75.8312 49.0016 75.8403C48.4253 75.847 47.9537 76.5447 47.9537 77.3899C47.9537 78.5387 48.5888 78.9268 50.4686 78.9268C51.8517 78.9268 52.9834 78.5901 52.9834 78.1787ZM64.4922 78.6997C64.2137 78.4212 63.4906 78.3914 62.8855 78.6336C62.2168 78.9012 62.4154 79.0998 63.392 79.14C64.2757 79.1764 64.7708 78.9783 64.4922 78.6997ZM61.5757 76.0998C60.5383 75.9 58.8408 75.9 57.8035 76.0998C56.7661 76.2996 57.6149 76.4631 59.6896 76.4631C61.7643 76.4631 62.6131 76.2996 61.5757 76.0998ZM34.6989 71.6617C35.1057 71.6617 35.0348 72.4162 34.5413 73.3383C33.7631 74.7923 33.8982 75.006 35.5597 74.9486C36.6132 74.9122 37.0249 74.6992 36.4745 74.4753C35.9241 74.2514 35.6937 73.4951 35.9625 72.7947C36.3591 71.7611 36.5847 71.7318 37.16 72.6393C37.7028 73.4956 37.8718 73.4139 37.8816 72.2904C37.8985 70.3582 33.2695 70.2361 32.5353 72.1494C31.6695 74.4056 32.0876 75.5425 33.0496 73.5478C33.5499 72.5105 34.2921 71.6617 34.6989 71.6617ZM44.8261 74.4649C44.2586 74.2353 43.1269 74.2214 42.3113 74.4338C41.4957 74.6464 41.9601 74.8343 43.3432 74.8513C44.7264 74.8684 45.3937 74.6946 44.8261 74.4649ZM60.1593 74.1765C61.104 74.1765 61.1458 73.7717 60.3753 72.0808C59.2316 69.5705 56.6592 69.3242 55.9197 71.6542C55.2435 73.7847 56.1469 75.2669 57.7473 74.6528C58.4299 74.3909 59.5153 74.1765 60.1593 74.1765ZM57.1748 71.6617C57.1748 71.2007 57.5743 70.8234 58.0625 70.8234C58.5508 70.8234 58.7171 71.2007 58.4322 71.6617C58.1472 72.1228 57.7477 72.5 57.5444 72.5C57.3411 72.5 57.1748 72.1228 57.1748 71.6617ZM43.265 70.8234C44.3901 70.8234 45.1595 70.3128 45.1595 69.566C45.1595 68.7682 44.3565 68.3086 42.9627 68.3086C41.0627 68.3086 40.7529 68.6767 40.6702 71.033C40.6176 72.5314 40.7536 73.0973 40.9725 72.2904C41.2023 71.4434 42.1711 70.8234 43.265 70.8234ZM45.1352 72.7552C44.2292 71.8491 42.0858 71.7219 42.0858 72.5742C42.0858 72.9944 42.9031 73.3383 43.9021 73.3383C44.901 73.3383 45.4559 73.0759 45.1352 72.7552ZM64.9021 69.8109C64.1417 68.5236 63.0127 67.4703 62.3934 67.4703C61.774 67.4703 61.5003 67.0931 61.7853 66.6321C62.0702 66.171 61.9039 65.7938 61.4156 65.7938C60.9274 65.7938 60.4841 65.1336 60.4306 64.3268C60.3417 62.9855 60.3013 62.9817 59.9585 64.2829C59.4807 66.0963 61.1886 69.3556 62.2673 68.6889C62.7166 68.4112 63.0302 68.4949 62.9642 68.875C62.574 71.1212 63.2053 72.3835 64.6637 72.2737C66.2077 72.1574 66.219 72.0402 64.9021 69.8109ZM30.9811 69.783C30.7904 69.2108 31.1362 68.2408 31.7496 67.6275C33.35 66.0271 33.1249 64.9555 31.1882 64.9555C30.2661 64.9555 29.5117 65.3209 29.5117 65.7675C29.5117 66.214 30.1718 66.332 30.9786 66.0297C32.2633 65.5482 32.3026 65.6557 31.2951 66.8942C30.6624 67.6721 29.6712 68.3086 29.0925 68.3086C28.5139 68.3086 27.5708 68.8744 26.9968 69.566C26.1061 70.6392 26.3469 70.8234 28.6406 70.8234C30.4076 70.8234 31.2092 70.4671 30.9811 69.783ZM48.792 69.9723C47.6871 69.247 47.6844 69.0506 48.7699 68.3529C49.5924 67.8242 50.2377 67.8942 50.701 68.5624C51.1522 69.2131 51.3035 68.9765 51.1311 67.8895C50.963 66.8297 50.1755 66.1779 48.9903 66.1178C47.4637 66.0403 47.1154 66.4685 47.1154 68.4231C47.1154 70.1552 47.5238 70.8199 48.5824 70.8106C49.8383 70.7996 49.8685 70.679 48.792 69.9723ZM37.6848 68.569C36.878 68.3582 35.5577 68.3582 34.7509 68.569C33.944 68.7799 34.6042 68.9524 36.2179 68.9524C37.8315 68.9524 38.4917 68.7799 37.6848 68.569ZM56.9907 66.0891C55.9924 64.3972 54.7917 63.4364 53.7718 63.5132C51.8442 63.6584 51.5566 64.9555 53.452 64.9555C54.1708 64.9555 54.52 65.3421 54.228 65.8145C53.936 66.287 54.1966 66.5699 54.8072 66.4433C55.4178 66.3166 55.8784 66.7922 55.8309 67.5003C55.7833 68.2083 56.383 68.7876 57.1636 68.7876C58.4612 68.7876 58.4464 68.5564 56.9907 66.0891ZM42.3935 66.4225C41.9657 65.7105 42.2186 65.7434 43.1823 66.5251C44.4304 67.5375 44.6006 67.4621 44.6006 65.8964C44.6006 64.6761 44.074 64.1172 42.9241 64.1172C41.8064 64.1172 41.2475 64.6761 41.2475 65.7938C41.2475 66.7159 41.647 67.4703 42.1353 67.4703C42.6235 67.4703 42.7397 66.9988 42.3935 66.4225ZM38.7327 64.9034C38.7327 64.471 37.9782 64.1172 37.0561 64.1172C36.134 64.1172 35.3796 64.4142 35.3796 64.7771C35.3796 65.1401 36.134 65.4938 37.0561 65.5633C37.9782 65.6328 38.7327 65.3358 38.7327 64.9034ZM49.8558 64.4056C49.2883 64.176 48.1566 64.162 47.341 64.3745C46.5254 64.5871 46.9897 64.7749 48.3729 64.792C49.756 64.8091 50.4233 64.6353 49.8558 64.4056ZM120.556 94.7657C121.503 94.1024 123.379 93.2937 124.724 92.9686C126.07 92.6435 128.68 91.7181 130.524 90.9122C134.764 89.0594 136.811 88.3825 136.811 88.8333C136.811 89.5397 121.559 95.9717 119.884 95.9717C119.307 95.9717 119.609 95.429 120.556 94.7657ZM190.461 92.2098C189.308 91.5566 184.781 89.6167 180.401 87.899C172.69 84.8748 169.979 83.4811 170.6 82.8604C170.944 82.5159 181.243 86.5938 182.497 87.5711C182.958 87.9305 185.693 89.0752 188.574 90.1148C191.456 91.1544 193.814 92.3317 193.814 92.7309C193.814 93.7377 192.908 93.597 190.461 92.2098ZM138.488 87.2498C138.488 87.0633 140.657 85.6892 143.308 84.1963C145.959 82.7034 150.58 79.7664 153.576 77.6696C156.573 75.5729 160.723 72.7184 162.798 71.3263C164.872 69.9343 166.947 68.3814 167.408 67.8754C169.292 65.8081 174.681 62.3089 175.193 62.8207C175.495 63.1229 175.187 63.7123 174.509 64.1306C171.484 65.9963 170.342 67.077 170.342 68.0745C170.342 68.6643 170.706 69.1469 171.151 69.1469C172.443 69.1469 183.042 75.1687 182.574 75.6366C182.163 76.0474 179.16 74.6294 172.622 70.9366C168.671 68.7057 167.749 68.7037 165.231 70.9206C164.123 71.8962 159.998 74.8197 156.065 77.4173C143.321 85.8327 138.488 88.5364 138.488 87.2498ZM172.019 80.1345C172.019 79.6812 172.679 79.3535 173.486 79.4061C174.292 79.4588 176.461 79.2528 178.306 78.9485C182.498 78.2567 179.637 79.562 175.162 80.3823C173.27 80.7292 172.019 80.6305 172.019 80.1345ZM185.431 77.9488C185.431 77.2572 184.991 76.6914 184.453 76.6914C183.915 76.6914 183.674 76.4922 183.918 76.2488C184.597 75.5691 188.784 77.3744 188.784 78.3472C188.784 78.8196 188.03 79.2062 187.108 79.2062C186.176 79.2062 185.431 78.6473 185.431 77.9488ZM175.042 61.7477C174.777 61.3178 171.724 60.2985 168.259 59.4825C164.794 58.6665 161.959 57.678 161.959 57.2858C161.959 56.8936 162.054 56.5872 162.169 56.6049C165.786 57.1601 176.914 60.5744 177.023 61.1623C177.226 62.2629 175.649 62.7291 175.042 61.7477ZM126.162 40.276C126.451 38.4931 126.269 37.2714 125.685 37.0767C125.161 36.9019 125.377 36.5176 126.171 36.2129C127.399 35.7416 127.582 36.1938 127.46 39.4122C127.382 41.4737 126.953 43.1603 126.506 43.1603C126.049 43.1603 125.899 41.9 126.162 40.276ZM127.205 31.6937C127.42 29.9319 127.975 26.6044 128.437 24.2991C129.959 16.7178 130.068 12.9824 128.768 12.9824C128.12 12.9824 127.59 12.579 127.59 12.0858C127.59 11.5927 128.439 11.3098 129.476 11.4571C131.144 11.694 131.362 12.2084 131.362 15.9043C131.362 19.2289 131.664 20.1418 132.839 20.3687C134.71 20.7297 133.88 22.2034 131.806 22.2034C130.226 22.2034 129.089 25.9262 128.88 31.7829C128.832 33.1327 128.347 34.3855 127.803 34.5669C127.115 34.7963 126.932 33.9208 127.205 31.6937ZM107.471 13.4016C107.471 12.8241 108.542 12.4313 109.986 12.4794C111.369 12.5255 112.501 12.9405 112.501 13.4016C112.501 13.8626 111.369 14.2776 109.986 14.3237C108.542 14.3718 107.471 13.979 107.471 13.4016ZM116.315 13.0506C116.054 12.6271 116.926 12.0419 118.254 11.7502C120.984 11.1506 125.075 11.9441 125.075 13.0733C125.075 14.0627 116.928 14.0416 116.315 13.0506Z" fill="white"/>
</svg>
