<svg width="20" height="27" viewBox="0 0 20 27" fill="none" xmlns="http://www.w3.org/2000/svg">
<path d="M20 3.375V27H0V3.375H6.66667C6.66667 2.90918 6.75347 2.47412 6.92708 2.06982C7.10069 1.66553 7.33941 1.30518 7.64323 0.98877C7.94705 0.672363 8.29861 0.430664 8.69792 0.263672C9.09722 0.0966797 9.53125 0.00878906 10 0C10.4601 0 10.8898 0.0878906 11.2891 0.263672C11.6884 0.439453 12.0443 0.681152 12.3568 0.98877C12.6693 1.29639 12.908 1.65234 13.0729 2.05664C13.2378 2.46094 13.3247 2.90039 13.3333 3.375H20ZM5 5.0625V6.75H15V5.0625H11.6667V3.375C11.6667 3.1377 11.6233 2.91797 11.5365 2.71582C11.4497 2.51367 11.3325 2.33789 11.1849 2.18848C11.0373 2.03906 10.8594 1.91602 10.651 1.81934C10.4427 1.72266 10.2257 1.67871 10 1.6875C9.76562 1.6875 9.54861 1.73145 9.34896 1.81934C9.14931 1.90723 8.97569 2.02588 8.82812 2.17529C8.68056 2.32471 8.55903 2.50488 8.46354 2.71582C8.36806 2.92676 8.32465 3.14648 8.33333 3.375V5.0625H5ZM18.3333 5.0625H16.6667V8.4375H3.33333V5.0625H1.66667V25.3125H18.3333V5.0625ZM13.0599 9.479C13.4245 9.479 13.763 9.54492 14.0755 9.67676C14.388 9.80859 14.6658 9.99316 14.9089 10.2305C15.1519 10.4678 15.3342 10.7446 15.4557 11.061C15.5773 11.3774 15.6467 11.7202 15.6641 12.0894C15.6641 12.4321 15.599 12.7661 15.4688 13.0913C15.3385 13.4165 15.1519 13.7021 14.9089 13.9482L8.0599 20.9487L3.39844 21.8452L4.375 17.2178L11.224 10.2305C11.467 9.98438 11.7491 9.7998 12.0703 9.67676C12.3915 9.55371 12.7214 9.48779 13.0599 9.479ZM13.724 12.7617C13.9062 12.5596 13.9974 12.3354 13.9974 12.0894C13.9974 11.8169 13.9106 11.5972 13.737 11.4302C13.5634 11.2632 13.3377 11.1753 13.0599 11.1665C12.9384 11.1665 12.8212 11.1841 12.7083 11.2192C12.5955 11.2544 12.4957 11.3203 12.4089 11.417L5.91146 18.0483L5.5599 19.7095L7.23958 19.3799L13.724 12.7617Z" fill="black"/>
</svg>
