<svg width="32" height="34" viewBox="0 0 32 34" fill="none" xmlns="http://www.w3.org/2000/svg">
<path d="M20.6995 6C21.3632 6.00002 22.0036 6.21421 22.4982 6.60162C22.9929 6.98903 23.3071 7.52249 23.3809 8.1H24.9014C25.4281 8.10002 25.9355 8.27343 26.3229 8.58581C26.7104 8.8982 26.9495 9.32671 26.9928 9.7863L27 9.9375V13.0875C27.0001 13.9591 26.6192 14.7978 25.9355 15.4313C25.2519 16.0649 24.3172 16.4454 23.3233 16.4947L23.0715 16.501C22.6716 17.5919 21.926 18.5608 20.9217 19.2951C19.9173 20.0293 18.6954 20.4987 17.3982 20.6485V22.275H19.5003C20.4956 22.2752 21.4531 22.6088 22.1764 23.2074C22.8998 23.806 23.3341 24.6242 23.3905 25.4943L23.3977 25.6875V26.2125C23.3976 26.403 23.3187 26.5869 23.1756 26.7304C23.0326 26.8738 22.8349 26.967 22.6194 26.9926L22.4983 27H10.5017C10.2842 27.0002 10.0739 26.9314 9.90985 26.8063C9.74581 26.6812 9.63911 26.5083 9.60952 26.3196L9.60233 26.2125V25.6875C9.60225 24.816 9.98295 23.9775 10.6664 23.344C11.3498 22.7105 12.2841 22.3299 13.2778 22.2802L13.4997 22.275H15.5982V20.6485C14.3015 20.4983 13.0801 20.0288 12.0761 19.2946C11.0722 18.5603 10.327 17.5916 9.92731 16.501L9.89733 16.5C8.86369 16.5 7.87239 16.1405 7.1415 15.5005C6.41061 14.8605 6 13.9926 6 13.0875V9.9375C6 8.9232 6.94016 8.1 8.09856 8.1H9.61912C9.69288 7.52231 10.0073 6.98871 10.5022 6.60127C10.9971 6.21383 11.6378 5.99976 12.3017 6H20.6995ZM19.5003 23.85H13.4997C13.0259 23.8498 12.566 23.99 12.1947 24.2477C11.8235 24.5055 11.5628 24.8656 11.4551 25.2696L11.4215 25.425H21.5761C21.5085 25.0152 21.2849 24.6375 20.9414 24.353C20.5979 24.0684 20.1548 23.8938 19.6838 23.8573L19.5003 23.85ZM20.6995 7.575H12.3005C12.0619 7.575 11.8332 7.65797 11.6645 7.80565C11.4959 7.95334 11.4011 8.15364 11.4011 8.3625V14.6614C11.4216 15.8335 11.9678 16.9515 12.9217 17.774C13.8756 18.5966 15.1606 19.0576 16.4994 19.0576C17.8382 19.0576 19.1232 18.5966 20.0771 17.774C21.031 16.9515 21.5772 15.8335 21.5977 14.6614V8.3625C21.5977 8.15364 21.5029 7.95334 21.3343 7.80565C21.1656 7.65797 20.9381 7.575 20.6995 7.575ZM24.9002 9.675H23.3965V14.9071C23.8655 14.8488 24.2982 14.6532 24.6241 14.3522C24.95 14.0511 25.1501 13.6624 25.1916 13.2492L25.2 13.0875V9.9375C25.1999 9.87836 25.177 9.82099 25.135 9.77468C25.093 9.72837 25.0344 9.69583 24.9686 9.68235L24.9002 9.675ZM9.60233 9.675H8.09856C8.01905 9.675 7.9428 9.70266 7.88657 9.75188C7.83035 9.80111 7.79877 9.86788 7.79877 9.9375V13.0875C7.7987 13.5303 7.98126 13.9582 8.31286 14.2926C8.64446 14.6269 9.10279 14.8452 9.60353 14.9071L9.60233 9.675Z" fill="#353030"/>
</svg>
