<svg width="20" height="20" viewBox="0 0 20 20" fill="none" xmlns="http://www.w3.org/2000/svg">
<path d="M13.9995 1.93237e-07C14.6316 1.69138e-05 15.2415 0.204007 15.7126 0.572972C16.1837 0.941936 16.483 1.44999 16.5532 2H18.0014C18.503 2.00002 18.9862 2.16517 19.3552 2.46268C19.7241 2.76019 19.9519 3.1683 19.9932 3.606L20 3.75V6.75C20.0001 7.58014 19.6373 8.37883 18.9862 8.98223C18.3351 9.58563 17.445 9.948 16.4984 9.995L16.2586 10.001C15.8777 11.0399 15.1677 11.9627 14.2111 12.662C13.2545 13.3613 12.0908 13.8083 10.8554 13.951V15.5H12.8575C13.8054 15.5002 14.7172 15.8179 15.4061 16.388C16.095 16.9581 16.5087 17.7374 16.5624 18.566L16.5692 18.75V19.25C16.5692 19.4314 16.494 19.6066 16.3578 19.7432C16.2215 19.8798 16.0333 19.9686 15.828 19.993L15.7127 20H4.28735C4.08016 20.0002 3.8799 19.9347 3.72367 19.8156C3.56744 19.6964 3.46582 19.5317 3.43764 19.352L3.43079 19.25V18.75C3.43071 17.92 3.79329 17.1215 4.44416 16.5181C5.09504 15.9147 5.98489 15.5522 6.93125 15.505L7.14253 15.5H9.14116V13.951C7.90615 13.8079 6.74292 13.3608 5.78681 12.6615C4.83069 11.9622 4.121 11.0396 3.74029 10.001L3.71174 10C2.72733 10 1.78323 9.65759 1.08714 9.0481C0.391057 8.4386 0 7.61195 0 6.75V3.75C0 2.784 0.895386 2 1.99863 2H3.44678C3.51703 1.44982 3.81647 0.941626 4.28782 0.572638C4.75917 0.203651 5.36934 -0.000229125 6.0016 1.93237e-07H13.9995ZM12.8575 17H7.14253C6.69131 16.9998 6.2533 17.1333 5.89975 17.3788C5.5462 17.6243 5.29791 17.9673 5.19529 18.352L5.16332 18.5H14.8344C14.77 18.1098 14.557 17.75 14.2299 17.479C13.9028 17.208 13.4808 17.0417 13.0322 17.007L12.8575 17ZM13.9995 1.5H6.00046C5.77328 1.5 5.55542 1.57902 5.39478 1.71967C5.23415 1.86032 5.1439 2.05109 5.1439 2.25V8.249C5.16345 9.36528 5.68362 10.43 6.59208 11.2134C7.50054 11.9967 8.72441 12.4358 9.99943 12.4358C11.2744 12.4358 12.4983 11.9967 13.4068 11.2134C14.3152 10.43 14.8354 9.36528 14.855 8.249V2.25C14.855 2.05109 14.7647 1.86032 14.6041 1.71967C14.4434 1.57902 14.2267 1.5 13.9995 1.5ZM18.0002 3.5H16.5681V8.483C17.0148 8.42741 17.4268 8.24112 17.7372 7.95443C18.0477 7.66775 18.2382 7.29753 18.2778 6.904L18.2857 6.75V3.75C18.2856 3.69368 18.2638 3.63904 18.2238 3.59493C18.1838 3.55083 18.128 3.51984 18.0653 3.507L18.0002 3.5ZM3.43079 3.5H1.99863C1.92291 3.5 1.85028 3.52634 1.79674 3.57322C1.74319 3.62011 1.71311 3.6837 1.71311 3.75V6.75C1.71305 7.17172 1.88691 7.57929 2.20272 7.8977C2.51853 8.21611 2.95504 8.42396 3.43193 8.483L3.43079 3.5Z" fill="#353030"/>
</svg>
